<?xml version="1.0" encoding="iso-8859-1"?>
<!-- Generator: Adobe Illustrator 17.1.0, SVG Export Plug-In . SVG Version: 6.00 Build 0)  -->
<!DOCTYPE svg PUBLIC "-//W3C//DTD SVG 1.1//EN" "http://www.w3.org/Graphics/SVG/1.1/DTD/svg11.dtd">
<svg version="1.1" id="Capa_1" xmlns="http://www.w3.org/2000/svg" xmlns:xlink="http://www.w3.org/1999/xlink" x="0px" y="0px"
	 viewBox="0 0 211.314 211.314" style="enable-background:new 0 0 211.314 211.314;" xml:space="preserve">
<path d="M114.967,211.314c-10.208,0-20.142-3.281-26.872-7.51c-9.102-5.72-19.924-17.746-23.003-34.349
	c-2.537-13.677,0.727-23.499,2.886-29.999c0.392-1.179,0.762-2.293,1.045-3.275c0.139-0.48,0.175-0.792,0.179-0.972
	c-0.649-0.118-2.15,0.104-3.303,0.517c-0.045,0.016-0.096,0.033-0.142,0.047l-11.875,3.5c-1.024,0.301-2.123-0.079-2.742-0.946
	c-0.619-0.868-0.62-2.032-0.002-2.901c1.465-2.073,2.776-5.134,2.399-6.229c-0.888-0.977-5.838-2.138-10.494-2.452
	c-1.192-0.08-2.161-0.994-2.312-2.18s0.56-2.312,1.693-2.688c4.655-1.544,9.303-3.98,10.263-5.333
	c-1.14-1.174-5.903-2.991-10.531-3.974c-1.206-0.256-2.045-1.354-1.977-2.584c0.068-1.231,1.025-2.229,2.252-2.35
	c5.358-0.525,11.858-2.419,12.538-4.168c0.584-1.502-2.674-6.259-6.835-9.979c-0.934-0.835-1.105-2.231-0.402-3.268
	c0.701-1.035,2.062-1.393,3.184-0.834c0.079,0.038,7.983,3.949,13.74,3.615c5.253-0.303,9.043-4.787,9.08-4.832
	c0.607-0.747,1.591-1.081,2.529-0.851c0.937,0.228,1.659,0.975,1.856,1.918c1.113,5.321,3.413,10.779,4.732,11.23
	c1.199,0.336,3.313-0.815,5.078-2.197c-1.492-1.552-3.728-3.967-6.183-6.927c-3.394-4.093-8.839-12.916-7.181-26.034
	c1.132-8.95,8.164-19.139,11.421-23.45l-8.296-6.097c-0.6-0.441-0.972-1.126-1.016-1.869c-0.043-0.743,0.247-1.468,0.792-1.975
	l7.991-7.444l-1.934-6.515c-0.198-0.666-0.109-1.384,0.243-1.982c0.354-0.598,0.938-1.022,1.617-1.171l8.557-1.879l1.13-7.908
	c0.117-0.823,0.637-1.534,1.385-1.896c0.75-0.362,1.629-0.33,2.348,0.09l7.013,4.081l10.072-6.862
	c0.765-0.521,1.758-0.576,2.576-0.144S119.8,1.573,119.8,2.5v3.3l7.181-2.076c0.986-0.284,2.045,0.061,2.673,0.873
	c0.627,0.813,0.694,1.925,0.17,2.807l-1.118,1.879c1.588,0.4,3.536,1.019,5.925,1.859c6.626,2.333,8.763,9.229,11.024,16.531
	c1.3,4.194,2.644,8.532,4.891,12.127c5.884,9.414,19.34,18.401,19.475,18.491c0.856,0.568,1.279,1.603,1.063,2.607
	c-0.48,2.246-2.515,6.335-7.086,7.41c-4.554,1.068-8.333,0.29-11.548-2.388c-1.887-1.572-6.601-3.484-11.621-3.931
	c-0.926-0.082-1.925-0.154-2.963-0.229c-5.712-0.412-12.186-0.879-15.968-3.441c-1.95-1.321-3.174-3.314-3.939-5.269
	c-1.1,2.104-1.432,4.551,0.192,5.903c1.282,1.068,5.535,3.708,10.039,6.503c5.385,3.342,11.489,7.13,15.458,10.022
	c9.102,6.634,17.772,19.843,12.256,35.239c-5.032,14.043-17.587,19.153-29.729,24.095c-1.807,0.735-3.611,1.47-5.387,2.233
	c-12.248,5.266-20.536,15.263-21.116,25.47c-0.538,9.463,5.964,24.3,17.375,26.011c5.453,0.82,10.174-0.185,13.648-2.898
	c2.862-2.235,4.635-5.518,4.992-9.242c0.351-3.661-0.397-6.563-2.163-8.393c-1.556-1.61-3.877-2.408-6.574-2.249
	c-3.553,0.214-7.142,3.854-9.069,5.809c-1.396,1.416-2.166,2.196-3.455,2.196c-0.983,0-2.312-0.495-3.054-2.853
	c-1.052-3.346-1.127-11.009,6.122-16.072c10.859-7.583,21.877-4.406,28.015,0.615c1.341,1.097,12.972,11.229,8.336,28.942
	c-4.204,16.065-18.365,22.642-26.432,25.131C123.35,210.767,119.136,211.314,114.967,211.314z M68.668,130.174
	c1.447,0,2.947,0.334,4.073,1.387c1.013,0.946,2.023,2.756,1.086,6.008c-0.312,1.077-0.696,2.237-1.104,3.465
	c-2.117,6.373-5.017,15.101-2.715,27.511c2.785,15.014,12.543,25.872,20.747,31.026c8.236,5.176,22.757,9.002,35.183,5.166
	c7.074-2.184,19.478-7.896,23.068-21.619c3.847-14.696-5.576-22.918-6.664-23.807c-1.732-1.419-10.938-8.102-21.985-0.386
	c-3.375,2.356-4.351,5.349-4.497,7.59c2.548-2.438,6.337-5.493,10.791-5.76c4.158-0.264,7.885,1.088,10.471,3.768
	c1.961,2.031,4.167,5.822,3.542,12.341c-0.489,5.104-2.937,9.617-6.891,12.706c-4.519,3.529-10.721,4.916-17.469,3.903
	c-14.375-2.156-22.283-19.648-21.625-31.239c0.687-12.083,10.159-23.772,24.134-29.78c1.806-0.776,3.64-1.522,5.477-2.271
	c11.637-4.736,22.629-9.21,26.907-21.151c4.585-12.795-2.787-23.895-10.494-29.511c-3.818-2.783-9.838-6.519-15.149-9.814
	c-5.058-3.14-9.053-5.618-10.604-6.91c-3.771-3.144-3.898-8.849-0.309-13.874l2.5-3.5c0.621-0.871,1.729-1.251,2.753-0.941
	c1.024,0.308,1.74,1.233,1.779,2.302c0.064,1.526,0.734,5.844,3.029,7.398c2.674,1.811,8.689,2.245,13.522,2.594
	c1.068,0.076,2.095,0.15,3.047,0.235c6.38,0.567,11.926,3.025,14.379,5.069c1.332,1.109,3.354,2.269,7.202,1.362
	c1.385-0.326,2.235-1.293,2.731-2.141c-3.994-2.846-14.062-10.502-19.279-18.851c-2.591-4.146-4.032-8.798-5.426-13.298
	c-1.961-6.33-3.655-11.796-7.909-13.294c-5.078-1.788-6.989-2.085-7.579-2.129c-0.609,0.216-1.298,0.199-1.924-0.101
	c-1.166-0.561-1.712-1.92-1.258-3.132c0.027-0.074,0.057-0.146,0.088-0.215l-4.303,1.244c-0.755,0.219-1.569,0.07-2.196-0.403
	c-0.629-0.472-0.998-1.212-0.998-1.998V7.228l-7.468,5.088c-0.796,0.541-1.834,0.579-2.665,0.094L99.5,9.402l-0.851,5.951
	c-0.147,1.032-0.92,1.865-1.938,2.088l-7.624,1.674l1.609,5.423c0.271,0.91,0.002,1.895-0.692,2.541l-6.917,6.443l7.943,5.838
	c0.555,0.408,0.917,1.027,1.001,1.711s-0.119,1.372-0.559,1.901c-0.106,0.129-10.677,12.952-11.942,22.966
	c-1.422,11.247,3.192,18.746,6.069,22.216c4.102,4.946,7.651,8.389,7.688,8.423c0.988,0.955,1.021,2.53,0.07,3.525
	c-1.071,1.12-6.67,6.641-11.859,5.179c-3.617-1.017-5.925-6.447-7.23-10.868c-2.214,1.638-5.423,3.357-9.324,3.583
	c-2.255,0.124-4.699-0.226-6.982-0.776c1.64,2.644,2.647,5.546,1.669,8.062c-0.99,2.547-3.918,4.236-7.113,5.349
	c3.152,1.514,5.539,3.558,5.271,6.244c-0.246,2.462-2.693,4.584-5.677,6.28c2.765,0.813,5.139,2.057,5.978,3.964
	c0.78,1.773,0.536,3.84-0.068,5.723l6.253-1.843C65.076,130.711,66.83,130.174,68.668,130.174z M126.729,12.6l-0.031,0.053
	c-0.064,0.107-0.135,0.208-0.211,0.303C126.574,12.849,126.656,12.731,126.729,12.6z M95.144,88.625c-0.6,0-1.2-0.215-1.679-0.649
	c-0.404-0.367-9.902-9.109-9.902-19.101c0-9.818,9.297-20.678,9.692-21.136c0.902-1.044,2.48-1.157,3.524-0.256
	c1.044,0.902,1.159,2.48,0.258,3.526c-0.085,0.098-8.475,9.916-8.475,17.865c0,7.765,8.184,15.326,8.267,15.401
	c1.019,0.931,1.093,2.511,0.164,3.531C96.5,88.348,95.823,88.625,95.144,88.625z M132.758,43.152c-3.722,0-6.75-3.028-6.75-6.75
	s3.028-6.75,6.75-6.75s6.75,3.028,6.75,6.75S136.479,43.152,132.758,43.152z M132.758,34.652c-0.965,0-1.75,0.785-1.75,1.75
	s0.785,1.75,1.75,1.75s1.75-0.785,1.75-1.75S133.723,34.652,132.758,34.652z"/>
<g>
</g>
<g>
</g>
<g>
</g>
<g>
</g>
<g>
</g>
<g>
</g>
<g>
</g>
<g>
</g>
<g>
</g>
<g>
</g>
<g>
</g>
<g>
</g>
<g>
</g>
<g>
</g>
<g>
</g>
</svg>
